<svg height='100px' width='100px'  fill="#000000" xmlns="http://www.w3.org/2000/svg" xmlns:xlink="http://www.w3.org/1999/xlink" version="1.1" x="0px" y="0px" viewBox="0 0 24 24" style="enable-background:new 0 0 24 24;" xml:space="preserve"><path d="M17.785,21.336c0.407,0,0.753-0.029,1.028-0.064l0.192-0.025l0.113-0.157c1.116-1.56,1.398-3.536,1.437-4.919l0.006-0.208  l-0.155-0.138c-1.39-1.235-3.718-2.118-5.56-2.097l-0.145,0.002l-0.117,0.087c-0.479,0.357-1.311,1.229-1.785,1.818  c-0.691-0.345-1.527-1.111-2.492-2.284c-0.965-1.174-1.555-2.142-1.76-2.886c0.67-0.352,1.686-1,2.129-1.4l0.108-0.098l0.03-0.142  c0.374-1.793-0.04-4.258-0.983-5.86L9.725,2.784L9.519,2.75C8.356,2.555,5.792,2.651,3.98,3.474l-0.176,0.08L3.742,3.738  C2.938,6.127,3.561,10.551,7.728,15.82C11.758,20.535,15.625,21.336,17.785,21.336z M4.53,4.208C6.098,3.56,8.174,3.489,9.165,3.601  c0.732,1.368,1.067,3.401,0.803,4.894C9.454,8.915,8.355,9.59,7.861,9.806L7.553,9.941l0.046,0.333  c0.131,0.956,0.791,2.148,2.019,3.641c1.228,1.493,2.269,2.371,3.182,2.684l0.318,0.109l0.192-0.276  c0.308-0.442,1.182-1.39,1.694-1.814c1.518,0.03,3.45,0.753,4.65,1.737c-0.055,1.192-0.31,2.777-1.152,4.053  c-1.721,0.171-5.764-0.099-10.086-5.155C4.592,10.417,3.929,6.334,4.53,4.208z"></path></svg>